<svg width="130" height="36" viewBox="0 0 130 36" fill="none" xmlns="http://www.w3.org/2000/svg">
<path d="M4.80956 35L0.638174 1.14829H7.07788L9.55764 24.1774L11.7683 1.14829H18.208L14.0366 35H4.80956ZM20.6804 35V1.16751H27.2162V35H20.6804ZM37.6854 35.3075C32.854 35.3075 30.4383 31.8474 30.4383 24.9271V10.3369C30.4383 4.01892 33.2064 0.859946 38.7426 0.859946C41.0238 0.859946 42.7731 1.3213 43.9905 2.244C45.208 3.15389 46.0474 4.48668 46.5087 6.24238C46.9701 7.99808 47.2008 10.1382 47.2008 12.6629H40.588V9.66408C40.588 8.9336 40.4855 8.32487 40.2805 7.83789C40.0882 7.33809 39.6782 7.0882 39.0502 7.0882C38.2685 7.0882 37.7494 7.35091 37.4931 7.87634C37.2496 8.40177 37.1279 8.97846 37.1279 9.60641V26.0036C37.1279 26.9135 37.2432 27.6568 37.4739 28.2335C37.7174 28.7974 38.1852 29.0793 38.8772 29.0793C39.5949 29.0793 40.069 28.7974 40.2997 28.2335C40.5432 27.6568 40.6649 26.9007 40.6649 25.9652V21.1402H38.858V15.2964H47.1239V35H44.4134L43.26 32.155C42.081 34.2567 40.2228 35.3075 37.6854 35.3075ZM50.6151 35V1.16751H57.5738L60.6879 17.3725V1.16751H67.2237V35H60.611L57.2278 18.0837V35H50.6151ZM79.0962 35.3075C76.3921 35.3075 74.3225 34.4938 72.8872 32.8662C71.4647 31.2259 70.7534 28.8614 70.7534 25.7729V9.70252C70.7534 6.80626 71.4582 4.60843 72.8679 3.10904C74.2904 1.60964 76.3665 0.859946 79.0962 0.859946C81.8258 0.859946 83.8955 1.60964 85.3052 3.10904C86.7277 4.60843 87.439 6.80626 87.439 9.70252V25.7729C87.439 28.8614 86.7213 31.2259 85.286 32.8662C83.8635 34.4938 81.8002 35.3075 79.0962 35.3075ZM79.1539 29.0793C80.1791 29.0793 80.6917 28.0861 80.6917 26.0997V9.58718C80.6917 7.92119 80.1919 7.0882 79.1923 7.0882C78.0645 7.0882 77.5007 7.94041 77.5007 9.64485V26.1382C77.5007 27.189 77.6288 27.9451 77.8851 28.4065C78.1414 28.855 78.5643 29.0793 79.1539 29.0793ZM90.9686 35V1.16751H97.7351V29.2331H104.694V35H90.9686ZM107.109 35V1.16751H113.644V35H107.109Z" fill="black"/>
<path d="M124.816 1C125.773 1 126.627 1.21176 127.38 1.63529C128.149 2.05882 128.745 2.6549 129.169 3.42353C129.592 4.17647 129.804 5.03922 129.804 6.01176C129.804 6.96863 129.592 7.82353 129.169 8.57647C128.745 9.32941 128.149 9.92549 127.38 10.3647C126.627 10.7882 125.773 11 124.816 11C123.859 11 122.996 10.7882 122.227 10.3647C121.475 9.92549 120.878 9.32941 120.439 8.57647C120.016 7.82353 119.804 6.96863 119.804 6.01176C119.804 5.03922 120.016 4.17647 120.439 3.42353C120.878 2.6549 121.475 2.05882 122.227 1.63529C122.996 1.21176 123.859 1 124.816 1ZM124.816 9.8C125.945 9.8 126.847 9.4549 127.522 8.76471C128.212 8.05882 128.557 7.14118 128.557 6.01176C128.557 4.86667 128.212 3.94902 127.522 3.25882C126.847 2.55294 125.945 2.2 124.816 2.2C123.686 2.2 122.784 2.55294 122.11 3.25882C121.435 3.94902 121.098 4.86667 121.098 6.01176C121.098 7.15686 121.435 8.07451 122.11 8.76471C122.784 9.4549 123.686 9.8 124.816 9.8ZM127.027 5.07059C127.027 5.41569 126.941 5.71373 126.769 5.96471C126.612 6.21569 126.384 6.40392 126.086 6.52941L127.31 8.45882H125.475L124.463 6.69412H124.322V8.45882H122.745V3.42353H125.216C125.765 3.42353 126.204 3.58039 126.533 3.89412C126.863 4.19216 127.027 4.58431 127.027 5.07059ZM124.298 5.51765H125.051C125.161 5.51765 125.255 5.48627 125.333 5.42353C125.412 5.36078 125.451 5.26667 125.451 5.14118C125.451 4.90588 125.318 4.78823 125.051 4.78823H124.298V5.51765Z" fill="black"/>
</svg>
